# xmcd
#
# Track frame offsets: 
#        150
#        23466
#        47877
#        59767
#        74723
#        93741
#
# Disc length: 1628 seconds
#
# Revision: 1
# Processed by: cddbd v1.5.2PL0 Copyright (c) Steve Scherf et al.
# Submitted via: ExactAudioCopy v0.99pb4
#
DISCID=57065a06
DTITLE=William Elliott Whitmore and Jenny Hoyston - Hallways of Always
DYEAR=2006
DGENRE=Folk/Rock
TTITLE0=Feast of a Thousand Beasts
TTITLE1=You're Already Gone
TTITLE2=Black Iowa Dirt
TTITLE3=We Miss You
TTITLE4=Marrow
TTITLE5=Hallways of Always 
EXTD=
EXTT0=
EXTT1=
EXTT2=
EXTT3=
EXTT4=
EXTT5=
PLAYORDER=
